# xmcd
#
# Track frame offsets:
#	150
#	11684
#	24098
#	36335
#	50355
#	61681
#	74737
#	92314
#	108004
#	123986
#	139607
#	152630
#	167254
#	178132
#	197271
#	215024
#	228170
#	238666
#	249367
#	264592
#
# Disc length: 3687 seconds
#
# Revision: 1
# Processed by: cddbd v1.5.2PL0 Copyright (c) Steve Scherf et al.
# Submitted via: audiograbber 1.83.01
#
DISCID=fa0e6514
DTITLE=Various Artist - Country Love Songs, CD 2
DYEAR=2004
DGENRE=Country
TTITLE0=Billie Jo Spears - Stand By Your Man
TTITLE1=Glen Campbell and Rita Coolidge - Somethin' 'Bout You Baby I Like
TTITLE2=Willie Nelson and Shirley Collie - Willingly
TTITLE3=Lacy J. Dalton - Still Crazy After All These Years
TTITLE4=Crystal Gayle - Hello I Love You
TTITLE5=Dr. Hook - A Little Bit More
TTITLE6=Gail Davies - The Other Side Of Love
TTITLE7=Juice Newton - Lay Back In The Arms Of Someone
TTITLE8=Kenny Rogers and Dottie West - Just The Way You Are
TTITLE9=Cleve Francis and Patti Austin - We Fell In Love Anyway
TTITLE10=Barbara Mandrell - I Wish That I Could Fall In Love Today
TTITLE11=Dean Miller and Trisha Yearwood - Dreams
TTITLE12=George Jones - Ain't It Funny What A Fool Will Do
TTITLE13=Lee Greenwood and Lacy J. Dalton - From Now On
TTITLE14=Suzy Bogguss - Someday Soon
TTITLE15=Tanya Tucker - One Love At A Time
TTITLE16=Wanda Jackson - Fancy Satin Pillows
TTITLE17=Jessie Colter - It's Morning (And I Still Love You)
TTITLE18=Cristy Lane - Simple Little Words
TTITLE19=Faron Young - Goin' Steady
EXTD=
EXTT0=
EXTT1=
EXTT2=
EXTT3=
EXTT4=
EXTT5=
EXTT6=
EXTT7=
EXTT8=
EXTT9=
EXTT10=
EXTT11=
EXTT12=
EXTT13=
EXTT14=
EXTT15=
EXTT16=
EXTT17=
EXTT18=
EXTT19=
PLAYORDER=
